<mxfile host="app.diagrams.net" modified="2023-09-30T21:10:10.450Z" agent="Mozilla/5.0 (Windows NT 10.0; Win64; x64) AppleWebKit/537.36 (KHTML, like Gecko) Chrome/117.0.0.0 Safari/537.36" version="22.0.0" etag="9n3SnBLpY_P3ZkNQ5OCE" type="device">
  <diagram id="5LlpW4bhE_GB--ksZMV6" name="Page-1">
    <mxGraphModel dx="1687" dy="904" grid="1" gridSize="10" guides="1" tooltips="1" connect="1" arrows="1" fold="1" page="1" pageScale="1" pageWidth="850" pageHeight="1100" math="0" shadow="0">
      <root>
        <mxCell id="0" />
        <mxCell id="1" parent="0" />
        <mxCell id="4" style="edgeStyle=none;html=1;entryX=0.5;entryY=0;entryDx=0;entryDy=0;" parent="1" source="2" target="3" edge="1">
          <mxGeometry relative="1" as="geometry" />
        </mxCell>
        <mxCell id="2" value="loteria()" style="ellipse;whiteSpace=wrap;html=1;" parent="1" vertex="1">
          <mxGeometry x="368" y="20" width="115" height="60" as="geometry" />
        </mxCell>
        <mxCell id="6" value="" style="edgeStyle=none;html=1;" parent="1" source="3" target="5" edge="1">
          <mxGeometry relative="1" as="geometry" />
        </mxCell>
        <mxCell id="3" value="static int numeroGanador = 0" style="rounded=0;whiteSpace=wrap;html=1;" parent="1" vertex="1">
          <mxGeometry x="338" y="110" width="174.5" height="50" as="geometry" />
        </mxCell>
        <mxCell id="7aI6WxUDL-1KCV3YsPpc-7" style="edgeStyle=orthogonalEdgeStyle;rounded=0;orthogonalLoop=1;jettySize=auto;html=1;entryX=0.5;entryY=0;entryDx=0;entryDy=0;" edge="1" parent="1" source="5" target="7">
          <mxGeometry relative="1" as="geometry">
            <Array as="points">
              <mxPoint x="566" y="235" />
            </Array>
          </mxGeometry>
        </mxCell>
        <mxCell id="7aI6WxUDL-1KCV3YsPpc-11" style="edgeStyle=orthogonalEdgeStyle;rounded=0;orthogonalLoop=1;jettySize=auto;html=1;entryX=0.5;entryY=0;entryDx=0;entryDy=0;" edge="1" parent="1" source="5" target="7aI6WxUDL-1KCV3YsPpc-10">
          <mxGeometry relative="1" as="geometry">
            <Array as="points">
              <mxPoint x="300" y="235" />
              <mxPoint x="300" y="380" />
              <mxPoint x="425" y="380" />
            </Array>
          </mxGeometry>
        </mxCell>
        <mxCell id="5" value="numeroGanador&lt;br&gt;==&lt;br&gt;0" style="rhombus;whiteSpace=wrap;html=1;" parent="1" vertex="1">
          <mxGeometry x="345" y="190" width="159.5" height="90" as="geometry" />
        </mxCell>
        <mxCell id="7aI6WxUDL-1KCV3YsPpc-12" style="edgeStyle=orthogonalEdgeStyle;rounded=0;orthogonalLoop=1;jettySize=auto;html=1;entryX=0.5;entryY=0;entryDx=0;entryDy=0;" edge="1" parent="1" source="7" target="7aI6WxUDL-1KCV3YsPpc-10">
          <mxGeometry relative="1" as="geometry" />
        </mxCell>
        <mxCell id="7" value="numeroGanador = generarNumeroLoteria()" style="rounded=0;whiteSpace=wrap;html=1;" parent="1" vertex="1">
          <mxGeometry x="483" y="290" width="165.5" height="60" as="geometry" />
        </mxCell>
        <mxCell id="7aI6WxUDL-1KCV3YsPpc-8" value="V" style="text;html=1;strokeColor=none;fillColor=none;align=center;verticalAlign=middle;whiteSpace=wrap;rounded=0;" vertex="1" parent="1">
          <mxGeometry x="483" y="210" width="60" height="30" as="geometry" />
        </mxCell>
        <mxCell id="7aI6WxUDL-1KCV3YsPpc-15" style="edgeStyle=orthogonalEdgeStyle;rounded=0;orthogonalLoop=1;jettySize=auto;html=1;entryX=0.5;entryY=0;entryDx=0;entryDy=0;" edge="1" parent="1" source="7aI6WxUDL-1KCV3YsPpc-10" target="7aI6WxUDL-1KCV3YsPpc-14">
          <mxGeometry relative="1" as="geometry" />
        </mxCell>
        <mxCell id="7aI6WxUDL-1KCV3YsPpc-10" value="numeroJugador = generarNumeroLoteria()" style="rounded=0;whiteSpace=wrap;html=1;" vertex="1" parent="1">
          <mxGeometry x="342" y="410" width="165.5" height="60" as="geometry" />
        </mxCell>
        <mxCell id="7aI6WxUDL-1KCV3YsPpc-13" value="F" style="text;html=1;strokeColor=none;fillColor=none;align=center;verticalAlign=middle;whiteSpace=wrap;rounded=0;" vertex="1" parent="1">
          <mxGeometry x="305" y="210" width="60" height="30" as="geometry" />
        </mxCell>
        <mxCell id="7aI6WxUDL-1KCV3YsPpc-18" style="edgeStyle=orthogonalEdgeStyle;rounded=0;orthogonalLoop=1;jettySize=auto;html=1;" edge="1" parent="1" source="7aI6WxUDL-1KCV3YsPpc-14" target="7aI6WxUDL-1KCV3YsPpc-17">
          <mxGeometry relative="1" as="geometry">
            <Array as="points">
              <mxPoint x="222" y="560" />
            </Array>
          </mxGeometry>
        </mxCell>
        <mxCell id="7aI6WxUDL-1KCV3YsPpc-19" style="edgeStyle=orthogonalEdgeStyle;rounded=0;orthogonalLoop=1;jettySize=auto;html=1;entryX=0.5;entryY=0;entryDx=0;entryDy=0;" edge="1" parent="1" source="7aI6WxUDL-1KCV3YsPpc-14" target="7aI6WxUDL-1KCV3YsPpc-16">
          <mxGeometry relative="1" as="geometry" />
        </mxCell>
        <mxCell id="7aI6WxUDL-1KCV3YsPpc-14" value="numeroJugador&lt;br&gt;==&lt;br&gt;numeroGanador" style="rhombus;whiteSpace=wrap;html=1;" vertex="1" parent="1">
          <mxGeometry x="352.12" y="500" width="145.25" height="120" as="geometry" />
        </mxCell>
        <mxCell id="7aI6WxUDL-1KCV3YsPpc-24" style="edgeStyle=orthogonalEdgeStyle;rounded=0;orthogonalLoop=1;jettySize=auto;html=1;entryX=0.5;entryY=0;entryDx=0;entryDy=0;" edge="1" parent="1" source="7aI6WxUDL-1KCV3YsPpc-16" target="7aI6WxUDL-1KCV3YsPpc-22">
          <mxGeometry relative="1" as="geometry">
            <Array as="points">
              <mxPoint x="627" y="760" />
              <mxPoint x="425" y="760" />
            </Array>
          </mxGeometry>
        </mxCell>
        <mxCell id="7aI6WxUDL-1KCV3YsPpc-16" value="&quot;Felicidades, ganaste la loteria!, el numero ganador fue: %d\n&quot;, numeroGanador" style="shape=document;whiteSpace=wrap;html=1;boundedLbl=1;" vertex="1" parent="1">
          <mxGeometry x="497.37" y="650" width="260" height="80" as="geometry" />
        </mxCell>
        <mxCell id="7aI6WxUDL-1KCV3YsPpc-23" style="edgeStyle=orthogonalEdgeStyle;rounded=0;orthogonalLoop=1;jettySize=auto;html=1;entryX=0.5;entryY=0;entryDx=0;entryDy=0;" edge="1" parent="1" source="7aI6WxUDL-1KCV3YsPpc-17" target="7aI6WxUDL-1KCV3YsPpc-22">
          <mxGeometry relative="1" as="geometry">
            <Array as="points">
              <mxPoint x="222" y="760" />
              <mxPoint x="425" y="760" />
            </Array>
          </mxGeometry>
        </mxCell>
        <mxCell id="7aI6WxUDL-1KCV3YsPpc-17" value="&quot;Lo siento, no ganaste esta vez. El numero ganador era: %d, tu numero fue: %d\n&quot;, numeroGanador, numeroJugador" style="shape=document;whiteSpace=wrap;html=1;boundedLbl=1;" vertex="1" parent="1">
          <mxGeometry x="92.12" y="650" width="260" height="80" as="geometry" />
        </mxCell>
        <mxCell id="7aI6WxUDL-1KCV3YsPpc-20" value="V" style="text;html=1;strokeColor=none;fillColor=none;align=center;verticalAlign=middle;whiteSpace=wrap;rounded=0;" vertex="1" parent="1">
          <mxGeometry x="490" y="535" width="60" height="30" as="geometry" />
        </mxCell>
        <mxCell id="7aI6WxUDL-1KCV3YsPpc-21" value="F" style="text;html=1;strokeColor=none;fillColor=none;align=center;verticalAlign=middle;whiteSpace=wrap;rounded=0;" vertex="1" parent="1">
          <mxGeometry x="305" y="535" width="60" height="30" as="geometry" />
        </mxCell>
        <mxCell id="7aI6WxUDL-1KCV3YsPpc-22" value="return" style="ellipse;whiteSpace=wrap;html=1;" vertex="1" parent="1">
          <mxGeometry x="365.5" y="790" width="120" height="80" as="geometry" />
        </mxCell>
      </root>
    </mxGraphModel>
  </diagram>
</mxfile>
